<mxfile host="app.diagrams.net" modified="2023-07-04T01:41:08.675Z" agent="Mozilla/5.0 (Windows NT 10.0; Win64; x64) AppleWebKit/537.36 (KHTML, like Gecko) Chrome/114.0.0.0 Safari/537.36" version="21.5.2" etag="nSf3TAtkrkR8oqswklI3" type="github">
  <diagram name="Page-1" id="bGeD9KCwQNzRmXwUkCHi">
    <mxGraphModel>
      <root>
        <mxCell id="0" />
        <mxCell id="1" parent="0" />
      </root>
    </mxGraphModel>
  </diagram>
</mxfile>
